<svg id="Capa_1" enable-background="new 0 0 512 512" height="512" viewBox="0 0 512 512" width="512" xmlns="http://www.w3.org/2000/svg"><g><g><path d="m395.704 72.906c0-40.265-32.641-72.906-72.906-72.906-28.051 0-52.402 15.842-64.594 39.068-.938 1.788-3.469 1.788-4.407 0-12.192-23.226-36.543-39.068-64.595-39.068-40.265 0-72.906 32.641-72.906 72.906 0 79.539 124.392 157.072 138.421 165.563.79.478 1.775.478 2.565 0 14.029-8.491 138.422-86.024 138.422-165.563z" fill="#e28086"/></g><g><path d="m333.118.725c13.208 13.195 21.379 31.432 21.379 51.577 0 74.201-108.258 146.657-134.177 162.941 16.941 12.47 30.323 20.76 34.398 23.226.79.478 1.775.478 2.565 0 14.029-8.491 138.421-86.024 138.421-165.563 0-36.762-27.209-67.168-62.586-72.181z" fill="#dd636e"/></g><g><path d="m64.771 111.678h-29.07c-7.636 0-13.826-6.19-13.826-13.826 0-7.636 6.19-13.826 13.826-13.826h29.069c7.636 0 13.826 6.19 13.826 13.826 0 7.636-6.19 13.826-13.825 13.826z" fill="#ffd064"/></g><g><path d="m79.168 170.829-27.316 9.942c-7.175 2.612-15.109-1.088-17.72-8.263-2.612-7.175 1.088-15.109 8.263-17.72l27.316-9.942c7.175-2.612 15.109 1.088 17.72 8.263 2.612 7.175-1.088 15.108-8.263 17.72z" fill="#ffd064"/></g><g><path d="m79.168 24.875-27.316-9.942c-7.175-2.612-15.109 1.088-17.72 8.263-2.612 7.175 1.088 15.109 8.263 17.72l27.316 9.942c7.175 2.612 15.109-1.088 17.72-8.263 2.612-7.174-1.088-15.108-8.263-17.72z" fill="#ffd064"/></g><g><path d="m447.229 111.678h29.069c7.636 0 13.826-6.19 13.826-13.826 0-7.636-6.19-13.826-13.826-13.826h-29.069c-7.636 0-13.826 6.19-13.826 13.826.001 7.636 6.191 13.826 13.826 13.826z" fill="#ffd064"/></g><g><path d="m432.832 170.829 27.316 9.942c7.175 2.612 15.109-1.088 17.72-8.263 2.612-7.175-1.088-15.109-8.263-17.72l-27.316-9.942c-7.175-2.612-15.109 1.088-17.72 8.263-2.612 7.175 1.088 15.108 8.263 17.72z" fill="#ffd064"/></g><g><path d="m432.832 24.875 27.316-9.942c7.175-2.612 15.109 1.088 17.72 8.263 2.612 7.175-1.088 15.109-8.263 17.72l-27.316 9.942c-7.175 2.612-15.109-1.088-17.72-8.263-2.612-7.174 1.088-15.108 8.263-17.72z" fill="#ffd064"/></g><g><path d="m417.617 331.47s10.161-73.083 10.273-73.44c-14.246-3.205-28.605 5.381-32.419 19.614l-15.271 56.992c-1.616 6.032-5.563 11.175-10.971 14.298z" fill="#df9380"/></g><g><path d="m461.319 239.83c-14.671-4.067-29.815 4.605-33.748 19.28l-15.271 56.993c-1.616 6.032-5.563 11.175-10.971 14.298l49.448-12.747z" fill="#eaac9d"/></g><g><path d="m511.696 234.978c1.125-4.2-1.012-8.638-5.045-10.262-20.847-8.393-43.653 3.446-49.288 24.473l-12.963 48.381c-1.616 6.032-5.563 11.175-10.971 14.297l-88.629 51.17c-6.342 3.662-13.946-2.173-12.051-9.247l6.702-25.01c5.267-19.656-6.379-39.859-26.016-45.159-6.049-1.633-12.314 1.937-13.936 7.989l-22.57 84.233c-4.989 18.62-7.516 37.813-7.516 57.089v77.947c0 .619.502 1.121 1.121 1.121h85.697c.619 0 1.121-.502 1.121-1.121v-32.407c0-16.836 6.72-32.975 18.67-44.835l103.074-102.305c6.052-6.007 10.404-13.511 12.611-21.748z" fill="#ffcbbe"/></g><g><path d="m94.383 331.47s-10.161-73.083-10.273-73.44c14.246-3.205 28.605 5.381 32.419 19.614l15.271 56.992c1.616 6.032 5.563 11.175 10.971 14.298z" fill="#df9380"/></g><g><path d="m50.681 239.83c14.671-4.067 29.815 4.605 33.748 19.28l15.271 56.993c1.616 6.032 5.563 11.175 10.971 14.298l-49.448-12.747z" fill="#eaac9d"/></g><g><path d="m.304 234.978c-1.125-4.2 1.012-8.638 5.045-10.262 20.847-8.393 43.653 3.446 49.287 24.473l12.964 48.381c1.616 6.032 5.563 11.175 10.971 14.297l88.629 51.17c6.342 3.662 13.946-2.173 12.051-9.247l-6.702-25.01c-5.267-19.656 6.379-39.859 26.016-45.159 6.049-1.633 12.314 1.937 13.936 7.989l22.57 84.233c4.989 18.62 7.516 37.813 7.516 57.089v77.947c0 .619-.502 1.121-1.121 1.121h-85.696c-.619 0-1.121-.502-1.121-1.121v-32.407c0-16.836-6.72-32.975-18.67-44.835l-103.074-102.304c-6.052-6.007-10.404-13.511-12.611-21.748z" fill="#ffcbbe"/></g></g></svg>